<mxfile host="app.diagrams.net" modified="2023-09-11T09:32:16.003Z" agent="Mozilla/5.0 (Macintosh; Intel Mac OS X 10_15_7) AppleWebKit/537.36 (KHTML, like Gecko) Chrome/116.0.0.0 Safari/537.36" version="21.7.4" etag="jIrU0BNZpsH8Z19gUP9e" type="github">
  <diagram name="第 1 页" id="Mok3O4YOo3TbND_BdBK5">
    <mxGraphModel>
      <root>
        <mxCell id="0" />
        <mxCell id="1" parent="0" />
      </root>
    </mxGraphModel>
  </diagram>
</mxfile>
